<?xml version="1.0" encoding="UTF-8"?>
<svg width="20" height="20" viewBox="0 0 20 20" fill="none" xmlns="http://www.w3.org/2000/svg">
  <path d="M14.0832 5.3125C13.0415 5.3125 12.2915 5.83333 11.7498 5.83333C11.1665 5.83333 10.4998 5.3125 9.58317 5.3125C8.4165 5.3125 7.1665 6.125 6.4165 7.45833C5.3748 9.25 5.5415 12.7083 7.1665 15.5417C7.8748 16.7917 8.7915 18.1667 9.9998 18.1667C11.1248 18.1667 11.4998 17.4167 12.9165 17.4167C14.2915 17.4167 14.6665 18.1667 15.7915 18.1667C17.0415 18.1667 17.9165 16.7917 18.6248 15.5417C19.0832 14.7083 19.2498 14.2917 19.5832 13.375C16.1248 12.125 15.7082 7.20833 19.1665 5.625C17.9998 4.125 15.9165 3.95833 14.9582 4.04167C14.0415 4.125 13.1665 4.70833 12.5832 4.70833C12.0415 4.70833 11.2082 4.125 10.1665 4.125" stroke="black" stroke-width="1.5" stroke-miterlimit="10" stroke-linecap="round" stroke-linejoin="round"/>
  <path d="M12.7915 1.875C12.2082 2.54167 11.1248 3.375 10.0415 3.29167C9.9165 2.45833 10.3332 1.58333 10.8332 0.958333C11.4165 0.25 12.5415 -0.125 13.4998 0.0416667C13.5832 0.916667 13.2915 1.75 12.7915 1.875Z" stroke="black" stroke-width="1.5" stroke-miterlimit="10" stroke-linecap="round" stroke-linejoin="round"/>
</svg> 