<?xml version="1.0" encoding="UTF-8"?>
<svg width="144" height="24" viewBox="0 0 144 24" fill="none" xmlns="http://www.w3.org/2000/svg">
  <!-- Instagram -->
  <g transform="translate(0,0)">
    <rect x="2" y="2" width="20" height="20" rx="6" stroke="currentColor" stroke-width="2" fill="none"/>
    <circle cx="12" cy="12" r="5" stroke="currentColor" stroke-width="2" fill="none"/>
    <circle cx="17" cy="7" r="1" fill="currentColor"/>
  </g>
  
  <!-- TikTok -->
  <g transform="translate(36,0)">
    <path d="M12 2C14 2 15 4 15 6V14C15 16 14 18 12 18C10 18 9 16 9 14C9 12 10 11 12 11" stroke="currentColor" stroke-width="2" fill="none"/>
    <path d="M15 6C17 6 19 5 20 3" stroke="currentColor" stroke-width="2" fill="none"/>
  </g>
  
  <!-- Facebook -->
  <g transform="translate(72,0)">
    <rect x="2" y="2" width="20" height="20" rx="6" stroke="currentColor" stroke-width="2" fill="none"/>
    <path d="M15 8H13C12.4 8 12 8.4 12 9V21" stroke="currentColor" stroke-width="2"/>
    <line x1="9" y1="13" x2="15" y2="13" stroke="currentColor" stroke-width="2"/>
  </g>
  
  <!-- LinkedIn -->
  <g transform="translate(108,0)">
    <rect x="2" y="2" width="20" height="20" rx="6" stroke="currentColor" stroke-width="2" fill="none"/>
    <circle cx="8" cy="8" r="2" stroke="currentColor" stroke-width="2" fill="none"/>
    <path d="M6 12V18M10 12V18M14 12V18M18 12V18" stroke="currentColor" stroke-width="2"/>
  </g>
</svg> 