<?xml version="1.0" encoding="UTF-8"?>
<svg width="100" height="32" viewBox="0 0 100 32" fill="none" xmlns="http://www.w3.org/2000/svg">
  <path d="M20.5 10C20.5 15.2467 16.2467 19.5 11 19.5C5.75329 19.5 1.5 15.2467 1.5 10C1.5 4.75329 5.75329 0.5 11 0.5C16.2467 0.5 20.5 4.75329 20.5 10Z" fill="#00C48C"/>
  <path d="M35.728 23.336C34.256 23.336 32.96 23.048 31.84 22.472C30.72 21.896 29.848 21.088 29.224 20.048C28.6 19.008 28.288 17.792 28.288 16.4C28.288 15.008 28.6 13.792 29.224 12.752C29.848 11.712 30.72 10.904 31.84 10.328C32.96 9.752 34.256 9.464 35.728 9.464C37.2 9.464 38.496 9.752 39.616 10.328C40.736 10.904 41.608 11.712 42.232 12.752C42.856 13.792 43.168 15.008 43.168 16.4C43.168 17.792 42.856 19.008 42.232 20.048C41.608 21.088 40.736 21.896 39.616 22.472C38.496 23.048 37.2 23.336 35.728 23.336ZM35.728 20.696C36.608 20.696 37.376 20.52 38.032 20.168C38.688 19.816 39.192 19.312 39.544 18.656C39.896 18 40.072 17.248 40.072 16.4C40.072 15.552 39.896 14.8 39.544 14.144C39.192 13.488 38.688 12.984 38.032 12.632C37.376 12.28 36.608 12.104 35.728 12.104C34.848 12.104 34.08 12.28 33.424 12.632C32.768 12.984 32.264 13.488 31.912 14.144C31.56 14.8 31.384 15.552 31.384 16.4C31.384 17.248 31.56 18 31.912 18.656C32.264 19.312 32.768 19.816 33.424 20.168C34.08 20.52 34.848 20.696 35.728 20.696Z" fill="black"/>
  <path d="M51.6276 23.336C50.1556 23.336 48.8596 23.048 47.7396 22.472C46.6196 21.896 45.7476 21.088 45.1236 20.048C44.4996 19.008 44.1876 17.792 44.1876 16.4C44.1876 15.008 44.4996 13.792 45.1236 12.752C45.7476 11.712 46.6196 10.904 47.7396 10.328C48.8596 9.752 50.1556 9.464 51.6276 9.464C53.0996 9.464 54.3956 9.752 55.5156 10.328C56.6356 10.904 57.5076 11.712 58.1316 12.752C58.7556 13.792 59.0676 15.008 59.0676 16.4C59.0676 17.792 58.7556 19.008 58.1316 20.048C57.5076 21.088 56.6356 21.896 55.5156 22.472C54.3956 23.048 53.0996 23.336 51.6276 23.336ZM51.6276 20.696C52.5076 20.696 53.2756 20.52 53.9316 20.168C54.5876 19.816 55.0916 19.312 55.4436 18.656C55.7956 18 55.9716 17.248 55.9716 16.4C55.9716 15.552 55.7956 14.8 55.4436 14.144C55.0916 13.488 54.5876 12.984 53.9316 12.632C53.2756 12.28 52.5076 12.104 51.6276 12.104C50.7476 12.104 49.9796 12.28 49.3236 12.632C48.6676 12.984 48.1636 13.488 47.8116 14.144C47.4596 14.8 47.2836 15.552 47.2836 16.4C47.2836 17.248 47.4596 18 47.8116 18.656C48.1636 19.312 48.6676 19.816 49.3236 20.168C49.9796 20.52 50.7476 20.696 51.6276 20.696Z" fill="black"/>
  <path d="M67.5272 23.336C66.0552 23.336 64.7592 23.048 63.6392 22.472C62.5192 21.896 61.6472 21.088 61.0232 20.048C60.3992 19.008 60.0872 17.792 60.0872 16.4C60.0872 15.008 60.3992 13.792 61.0232 12.752C61.6472 11.712 62.5192 10.904 63.6392 10.328C64.7592 9.752 66.0552 9.464 67.5272 9.464C68.9992 9.464 70.2952 9.752 71.4152 10.328C72.5352 10.904 73.4072 11.712 74.0312 12.752C74.6552 13.792 74.9672 15.008 74.9672 16.4C74.9672 17.792 74.6552 19.008 74.0312 20.048C73.4072 21.088 72.5352 21.896 71.4152 22.472C70.2952 23.048 68.9992 23.336 67.5272 23.336ZM67.5272 20.696C68.4072 20.696 69.1752 20.52 69.8312 20.168C70.4872 19.816 70.9912 19.312 71.3432 18.656C71.6952 18 71.8712 17.248 71.8712 16.4C71.8712 15.552 71.6952 14.8 71.3432 14.144C70.9912 13.488 70.4872 12.984 69.8312 12.632C69.1752 12.28 68.4072 12.104 67.5272 12.104C66.6472 12.104 65.8792 12.28 65.2232 12.632C64.5672 12.984 64.0632 13.488 63.7112 14.144C63.3592 14.8 63.1832 15.552 63.1832 16.4C63.1832 17.248 63.3592 18 63.7112 18.656C64.0632 19.312 64.5672 19.816 65.2232 20.168C65.8792 20.52 66.6472 20.696 67.5272 20.696Z" fill="black"/>
  <path d="M83.4268 23.336C81.9548 23.336 80.6588 23.048 79.5388 22.472C78.4188 21.896 77.5468 21.088 76.9228 20.048C76.2988 19.008 75.9868 17.792 75.9868 16.4C75.9868 15.008 76.2988 13.792 76.9228 12.752C77.5468 11.712 78.4188 10.904 79.5388 10.328C80.6588 9.752 81.9548 9.464 83.4268 9.464C84.8988 9.464 86.1948 9.752 87.3148 10.328C88.4348 10.904 89.3068 11.712 89.9308 12.752C90.5548 13.792 90.8668 15.008 90.8668 16.4C90.8668 17.792 90.5548 19.008 89.9308 20.048C89.3068 21.088 88.4348 21.896 87.3148 22.472C86.1948 23.048 84.8988 23.336 83.4268 23.336ZM83.4268 20.696C84.3068 20.696 85.0748 20.52 85.7308 20.168C86.3868 19.816 86.8908 19.312 87.2428 18.656C87.5948 18 87.7708 17.248 87.7708 16.4C87.7708 15.552 87.5948 14.8 87.2428 14.144C86.8908 13.488 86.3868 12.984 85.7308 12.632C85.0748 12.28 84.3068 12.104 83.4268 12.104C82.5468 12.104 81.7788 12.28 81.1228 12.632C80.4668 12.984 79.9628 13.488 79.6108 14.144C79.2588 14.8 79.0828 15.552 79.0828 16.4C79.0828 17.248 79.2588 18 79.6108 18.656C79.9628 19.312 80.4668 19.816 81.1228 20.168C81.7788 20.52 82.5468 20.696 83.4268 20.696Z" fill="black"/>
  <path d="M11 31.5C16.2467 31.5 20.5 27.2467 20.5 22C20.5 16.7533 16.2467 12.5 11 12.5C5.75329 12.5 1.5 16.7533 1.5 22C1.5 27.2467 5.75329 31.5 11 31.5Z" fill="#00C48C"/>
</svg> 